<svg width="42" height="44" viewBox="0 0 42 44" fill="none" xmlns="http://www.w3.org/2000/svg">
<path fill-rule="evenodd" clip-rule="evenodd" d="M15.5925 11.1156C15.6075 11.115 15.6225 11.1147 15.6374 11.1147H35.3626C35.3776 11.1147 35.3925 11.115 35.4075 11.1156C36.2608 11.1496 37.0707 11.4902 37.6794 12.071C38.2725 12.6369 38.6334 13.3915 38.6968 14.1945L41.8154 32.1005C41.8171 32.11 41.8186 32.1195 41.82 32.129C41.8876 32.594 41.8548 33.0675 41.7237 33.5195C41.5924 33.9716 41.3657 34.3922 41.0579 34.7547C40.7501 35.1172 40.3678 35.4136 39.9355 35.6252C39.5032 35.8367 39.0301 35.9588 38.5466 35.9836C38.5273 35.9846 38.508 35.9851 38.4887 35.9851H12.5113C12.492 35.9851 12.4727 35.9846 12.4534 35.9836C11.9698 35.9588 11.4969 35.8367 11.0646 35.6252C10.6322 35.4136 10.25 35.1172 9.94216 34.7547C9.63432 34.3922 9.40759 33.9716 9.27638 33.5195C9.14517 33.0675 9.11235 32.594 9.17999 32.129C9.18137 32.1195 9.18289 32.11 9.18454 32.1005L12.3032 14.1945C12.3666 13.3915 12.7275 12.6369 13.3206 12.071C13.9294 11.4902 14.7392 11.1496 15.5925 11.1156ZM15.6634 13.2378C15.3601 13.2544 15.0731 13.3774 14.8562 13.5843C14.6348 13.7956 14.5024 14.0791 14.4846 14.3798C14.4823 14.4187 14.4778 14.4574 14.4711 14.4959L11.3462 32.4377C11.3233 32.6072 11.3361 32.7796 11.3839 32.9443C11.4329 33.1129 11.5174 33.2698 11.6323 33.405C11.7471 33.5403 11.8897 33.6509 12.051 33.7298C12.2049 33.8051 12.3727 33.85 12.5446 33.862H38.4554C38.6273 33.85 38.7951 33.8051 38.9491 33.7298C39.1104 33.6509 39.2529 33.5403 39.3678 33.405C39.4826 33.2698 39.5672 33.1129 39.6161 32.9443C39.6639 32.7796 39.6767 32.6072 39.6537 32.4377L36.5288 14.4959C36.5221 14.4574 36.5177 14.4187 36.5153 14.3798C36.4976 14.0791 36.3652 13.7956 36.1438 13.5843C35.9269 13.3774 35.6399 13.2544 35.3366 13.2378H15.6634Z" fill="#090909"/>
<path fill-rule="evenodd" clip-rule="evenodd" d="M25.5033 2.01562C27.1236 2.02029 28.6918 2.57149 29.9388 3.57469C31.1859 4.57788 32.0342 5.97056 32.3382 7.51389C32.4517 8.08976 32.0622 8.64575 31.4683 8.75574C30.8745 8.86573 30.3011 8.48807 30.1877 7.91221C29.9791 6.85301 29.3969 5.89719 28.541 5.20869C27.686 4.52086 26.611 4.14264 25.5001 4.1387C24.3933 4.14266 23.322 4.51805 22.4683 5.20115C21.6136 5.88493 21.0298 6.83476 20.8161 7.88898C20.6995 8.46425 20.124 8.83892 19.5307 8.72584C18.9375 8.61277 18.5511 8.05476 18.6677 7.47949C18.9791 5.94358 19.8297 4.55975 21.0748 3.56355C22.32 2.56734 23.8826 2.02033 25.4968 2.01563L25.5 3.07716L25.5033 2.01562Z" fill="#090909"/>
<rect x="0.75" y="22" width="22.6875" height="22" fill="#FF9C08"/>
<path d="M12.2538 36.144C11.5098 36.144 10.8658 35.964 10.3218 35.604C9.78584 35.236 9.37384 34.728 9.08584 34.08C8.79784 33.424 8.65384 32.664 8.65384 31.8C8.65384 30.936 8.79784 30.18 9.08584 29.532C9.37384 28.876 9.78584 28.368 10.3218 28.008C10.8658 27.64 11.5098 27.456 12.2538 27.456C12.9978 27.456 13.6378 27.64 14.1738 28.008C14.7098 28.368 15.1218 28.876 15.4098 29.532C15.6978 30.18 15.8418 30.936 15.8418 31.8C15.8418 32.664 15.6978 33.424 15.4098 34.08C15.1218 34.728 14.7098 35.236 14.1738 35.604C13.6378 35.964 12.9978 36.144 12.2538 36.144ZM12.2538 35.256C12.7418 35.256 13.1778 35.12 13.5618 34.848C13.9538 34.568 14.2578 34.172 14.4738 33.66C14.6978 33.14 14.8098 32.52 14.8098 31.8C14.8098 31.08 14.6978 30.464 14.4738 29.952C14.2578 29.44 13.9538 29.048 13.5618 28.776C13.1778 28.496 12.7418 28.356 12.2538 28.356C11.7578 28.356 11.3178 28.496 10.9338 28.776C10.5498 29.048 10.2458 29.44 10.0218 29.952C9.79784 30.464 9.68584 31.08 9.68584 31.8C9.68584 32.52 9.79784 33.14 10.0218 33.66C10.2458 34.172 10.5498 34.568 10.9338 34.848C11.3178 35.12 11.7578 35.256 12.2538 35.256Z" fill="white"/>
</svg>
